<?xml version="1.0" encoding="UTF-8" standalone="no"?>
<svg
   xmlns:dc="http://purl.org/dc/elements/1.1/"
   xmlns:cc="http://creativecommons.org/ns#"
   xmlns:rdf="http://www.w3.org/1999/02/22-rdf-syntax-ns#"
   xmlns:svg="http://www.w3.org/2000/svg"
   xmlns="http://www.w3.org/2000/svg"
   id="svg8"
   version="1.1"
   viewBox="0 0 253.99999 119.0625"
   height="450"
   width="960">
  <defs
     id="defs2">
    <marker
       style="overflow:visible;"
       id="Arrow1Lend"
       refX="0.0"
       refY="0.0"
       orient="auto">
      <path
         transform="scale(0.8) rotate(180) translate(12.5,0)"
         style="fill-rule:evenodd;stroke:#f79d3d;stroke-width:1pt;stroke-opacity:0.94871796;fill:#f79d3d;fill-opacity:0.94871796"
         d="M 0.0,0.0 L 5.0,-5.0 L -12.5,0.0 L 5.0,5.0 L 0.0,0.0 z "
         id="path7545" />
    </marker>
    <marker
       style="overflow:visible"
       id="Tail"
       refX="0.0"
       refY="0.0"
       orient="auto">
      <g
         style="stroke:#f79d3d;stroke-opacity:0.94871796;fill:#f79d3d;fill-opacity:0.94871796"
         transform="scale(-1.2)"
         id="g7590">
        <path
           style="fill:#f79d3d;fill-rule:evenodd;stroke:#f79d3d;stroke-width:0.8;stroke-linecap:round;stroke-opacity:0.94871796;fill-opacity:0.94871796"
           d="M -3.8048674,-3.9585227 L 0.54352094,0"
           id="path7578" />
        <path
           style="fill:#f79d3d;fill-rule:evenodd;stroke:#f79d3d;stroke-width:0.8;stroke-linecap:round;stroke-opacity:0.94871796;fill-opacity:0.94871796"
           d="M -1.2866832,-3.9585227 L 3.0617053,0"
           id="path7580" />
        <path
           style="fill:#f79d3d;fill-rule:evenodd;stroke:#f79d3d;stroke-width:0.8;stroke-linecap:round;stroke-opacity:0.94871796;fill-opacity:0.94871796"
           d="M 1.3053582,-3.9585227 L 5.6537466,0"
           id="path7582" />
        <path
           style="fill:#f79d3d;fill-rule:evenodd;stroke:#f79d3d;stroke-width:0.8;stroke-linecap:round;stroke-opacity:0.94871796;fill-opacity:0.94871796"
           d="M -3.8048674,4.1775838 L 0.54352094,0.21974226"
           id="path7584" />
        <path
           style="fill:#f79d3d;fill-rule:evenodd;stroke:#f79d3d;stroke-width:0.8;stroke-linecap:round;stroke-opacity:0.94871796;fill-opacity:0.94871796"
           d="M -1.2866832,4.1775838 L 3.0617053,0.21974226"
           id="path7586" />
        <path
           style="fill:#f79d3d;fill-rule:evenodd;stroke:#f79d3d;stroke-width:0.8;stroke-linecap:round;stroke-opacity:0.94871796;fill-opacity:0.94871796"
           d="M 1.3053582,4.1775838 L 5.6537466,0.21974226"
           id="path7588" />
      </g>
    </marker>
    <marker
       style="overflow:visible"
       id="Arrow1Lend-9"
       refX="0"
       refY="0"
       orient="auto">
      <path
         transform="matrix(-0.8,0,0,-0.8,-10,0)"
         style="fill:#f79d3d;fill-opacity:0.94871796;fill-rule:evenodd;stroke:#f79d3d;stroke-width:1.00000003pt;stroke-opacity:0.94871796"
         d="M 0,0 5,-5 -12.5,0 5,5 Z"
         id="path7545-3" />
    </marker>
  </defs>
  <metadata
     id="metadata5">
    <rdf:RDF>
      <cc:Work
         rdf:about="">
        <dc:format>image/svg+xml</dc:format>
        <dc:type
           rdf:resource="http://purl.org/dc/dcmitype/StillImage" />
        <dc:title></dc:title>
      </cc:Work>
    </rdf:RDF>
  </metadata>
  <g
     transform="translate(0,-177.93748)"
     id="layer1">
    <path
       id="path7540"
       d="m 53.443338,275.46646 26.078666,-26.07867 -14.741072,-14.74107 0,-12.86726 h 38.751158"
       style="fill:none;fill-opacity:0.97802196;fill-rule:evenodd;stroke:#f79d3d;stroke-width:1.00000003;stroke-linecap:round;stroke-linejoin:bevel;stroke-miterlimit:4;stroke-dasharray:none;stroke-dashoffset:0;stroke-opacity:0.94871796;marker-end:url(#Arrow1Lend);paint-order:normal" />
    <path
       id="path7540-6"
       d="m 130.3815,288.23297 30.45144,-30.45144 -17.2128,-17.2128 v -35.31029 l 54.08047,0"
       style="fill:none;fill-opacity:0.97802196;fill-rule:evenodd;stroke:#f79d3d;stroke-width:1.16800003;stroke-linecap:round;stroke-linejoin:bevel;stroke-miterlimit:4;stroke-dasharray:none;stroke-dashoffset:0;stroke-opacity:0.94871796;marker-end:url(#Arrow1Lend-9);paint-order:normal" />
    <text
       id="text7388"
       y="265.9111"
       x="19.417469"
       style="font-style:normal;font-weight:normal;font-size:3.21152949px;line-height:125%;font-family:sans-serif;letter-spacing:0px;word-spacing:0px;fill:#0000c0;fill-opacity:1;stroke:none;stroke-width:0.08028821px;stroke-linecap:butt;stroke-linejoin:miter;stroke-opacity:1"
       xml:space="preserve"><tspan
         style="font-style:normal;font-variant:normal;font-weight:bold;font-stretch:normal;font-family:sans-serif;-inkscape-font-specification:'sans-serif Bold';fill:#0000c0;fill-opacity:1;stroke-width:0.08028821px"
         y="265.9111"
         x="19.417469"
         id="tspan7386">10$ WORTH DONATION</tspan></text>
    <path
       d="m 35.37667,248.28813 c -0.04369,0.0436 -0.991575,0.18713 -1.203621,0.0748 -0.212047,-0.11228 -0.511342,-0.75461 -0.536313,-1.0228 0,0 0.0063,-0.33047 0.143449,-0.40531 0.137193,-0.0748 0.274385,-0.0374 0.311873,-0.0686 0.03736,-0.0311 0.09351,-0.0311 0.211985,-0.0311 0.118478,0 0.168362,0 0.268127,0 0.09982,0 0.162164,0.006 0.199591,0 0.03736,-0.006 0.118478,0.0624 0.162102,0.17463 0.04369,0.11221 0.07922,0.33678 0.170549,0.45519 0.09138,0.11848 0.234831,0.39293 0.247287,0.49269 0.01245,0.0999 0.06866,0.28689 0.02498,0.33053 z m 2.388833,-6.61021 c 0,0 0.08312,-0.0907 0.223044,-0.0718 0.139865,0.0188 0.272136,0.0718 0.272136,0.0718 0.113436,-0.27972 -0.345897,-0.58643 -0.345897,-0.58643 -0.03743,-0.69842 -0.835609,-0.87303 -1.022683,-0.898 -0.187074,-0.025 -0.411637,-0.0873 -0.723449,-0.0999 -0.31175,-0.0124 -0.611167,0.23702 -0.898007,0.52386 -0.2869,0.2869 -0.449065,0.6486 -0.449065,0.6486 0,0 -0.08725,0.13099 -0.386604,0.34614 -0.299357,0.21514 -0.392864,0.39287 -1.159998,0.76701 -0.767013,0.37421 -1.00087,1.02901 -1.309583,2.19046 -0.308652,1.16146 0.77643,1.84128 0.869997,1.97695 0.09351,0.13561 0.622043,1.50134 0.668828,1.61362 0.04672,0.11223 -0.08889,0.2759 -0.1731,0.37883 -0.08415,0.10292 -0.107543,0.2245 -0.107543,0.27596 0,0.0514 0.04211,-0.0608 0.04211,-0.0608 0,0 0.09351,0.0374 0.144971,0.0421 0.05146,0.005 0.191813,-0.19643 0.191813,-0.19643 0,0 0.06543,0.13562 0.233859,0.19175 0.168361,0.0562 1.024262,0.0842 1.024262,0.0842 0,0 -0.08883,0.0795 -0.116899,0.14684 -0.02807,0.0673 0.112281,-0.0346 0.215146,-0.007 0.102863,0.028 0.135673,-0.0421 0.154326,-0.0608 0.01877,-0.0187 0.182396,-0.0561 0.205788,-0.0561 0.02339,0 0.299355,0.0655 0.463039,0.0841 0.163682,0.0188 1.459292,-0.028 1.571512,-0.0374 0.112282,-0.009 0.09357,-0.0889 0.09357,-0.0889 0,0 0,0 0.08889,0.009 0.03427,0.004 0.05171,0.009 0.06034,0.0149 -0.01112,-0.035 -0.04174,-0.1115 -0.102438,-0.13646 -0.07954,-0.0328 -0.977539,-0.0421 -0.977539,-0.0421 0,0 0.0655,-0.0608 0.196431,-0.0655 0.130994,-0.005 0.11696,-0.0982 0.11696,-0.0982 0,0 0,0 0.07954,0.028 0.07948,0.028 -0.01872,-0.0748 -0.05614,-0.12163 -0.03743,-0.0468 -0.205849,-0.0795 -0.292977,-0.0421 -0.08725,0.0374 -0.416376,0.13408 -0.491231,0.14034 -0.07486,0.006 -0.561284,-1.07888 -0.561284,-1.07888 l 0.0686,-0.0311 c 0,0 0.149647,-0.44275 0.467777,-0.60176 0.318009,-0.15907 1.131867,-1.14128 1.431162,-2.18893 0.299295,-1.04772 -0.134095,-1.899 -0.134095,-1.899 0,0 0,0 0.224563,-0.11842 0.224441,-0.11847 0.309442,-0.65606 0.309442,-0.65606 0,0 0.06434,-0.008 0.181546,-4.1e-4 0.117202,0.007 0.238173,-0.0605 0.241939,-0.10584 0.0037,-0.0453 -0.533032,-0.18526 -0.533032,-0.18526"
       style="fill:#005aab;fill-opacity:0.97802196;fill-rule:nonzero;stroke:none;stroke-width:0.00607583"
       id="path22" />
    <path
       d="m 37.705962,251.29889 c 0,1.00866 -1.104465,1.82628 -2.466969,1.82628 -1.362565,0 -2.467089,-0.81762 -2.467089,-1.82628 0,-1.00863 1.104524,-1.82627 2.467089,-1.82627 1.362504,0 2.466969,0.81764 2.466969,1.82627"
       style="fill:#005aab;fill-opacity:0.97802196;fill-rule:nonzero;stroke:none;stroke-width:0.00607583"
       id="path26" />
    <path
       d="m 42.871147,248.76805 c 0,1.00871 -1.104463,1.82634 -2.466969,1.82634 -1.362504,0 -2.467028,-0.81763 -2.467028,-1.82634 0,-1.00859 1.104524,-1.82621 2.467028,-1.82621 1.362506,0 2.466969,0.81762 2.466969,1.82621"
       style="fill:#005aab;fill-opacity:0.97802196;fill-rule:nonzero;stroke:none;stroke-width:0.00607583"
       id="path28" />
    <path
       d="m 43.414207,246.44571 c 0,0 -0.655823,-0.0121 -0.603146,-0.089 0.05256,-0.0768 0.453439,-0.53844 0.453439,-0.53844 0,0 0.267093,-1.1092 0.943271,-1.32787 0.676058,-0.21862 1.044374,-0.45751 1.372409,-0.46152 0.327852,-0.004 0.898797,0.0202 1.518105,0.76513 0.619491,0.74496 0.886706,0.77327 1.206538,0.95949 0.319772,0.18629 1.327751,0.77735 1.449268,1.86236 0.121394,1.08496 -0.537347,2.03212 -0.863924,2.37389 -0.326575,0.34176 -0.607581,0.55442 -0.645556,0.78986 -0.03797,0.23544 -0.299963,0.80128 -0.220248,0.8658 0.07978,0.0646 0.436731,0.42914 0.334172,0.48607 -0.102501,0.057 -0.508853,-0.15567 -0.672109,-0.15567 -0.163319,0 -1.450605,0.19747 -1.44301,0.11392 0.0076,-0.0835 0.356955,-0.18609 0.330343,-0.24302 -0.02655,-0.057 -0.379738,-0.0228 -0.360722,-0.0949 0.01896,-0.0721 0.93033,-0.10632 1.16577,-0.18987 0.235437,-0.0835 0.493661,-0.5772 0.516445,-0.67211 0.02278,-0.0949 0.06835,-0.18986 0.01902,-0.19747 -0.04939,-0.008 -0.888592,0.13671 -1.165831,0.0835 -0.277178,-0.0531 -0.455688,-0.0379 -0.497427,0.0228 -0.0418,0.0608 -0.110155,0.15566 -0.05317,0.23544 0.05694,0.0797 0.789857,0.45185 0.713908,0.51262 -0.07595,0.0608 -0.368377,-0.0608 -0.463282,-0.1443 -0.09497,-0.0835 -0.344376,-0.14047 -0.411454,-0.0911 -0.06702,0.0494 -0.313878,0.26582 -0.389826,0.25822 -0.07595,-0.008 -0.398695,-0.0645 -0.505022,-0.0379 -0.106327,0.0267 -1.169596,0.057 -1.127855,-0.0115 0.0418,-0.0684 0.15949,-0.23928 0.349359,-0.26965 0.18987,-0.0303 0.687358,-0.0303 0.911375,-0.15949 0.224076,-0.12911 0.486066,-0.5924 0.486066,-0.5924 0,0 -0.250628,-0.44809 -0.584799,-0.64931 -0.334171,-0.2013 -1.048079,-0.91521 -1.169597,-1.93291 0,0 -0.36455,-0.35696 -0.463281,-0.82024 -0.09873,-0.46328 -0.129235,-0.65035 -0.129235,-0.65035"
       style="fill:#005aab;fill-opacity:0.97802196;fill-rule:nonzero;stroke:none;stroke-width:0.00607583"
       id="path34" />
    <path
       d="m 54.667003,249.36517 c 0,1.0135 -1.001538,1.83507 -2.236997,1.83507 -1.235458,0 -2.23706,-0.82157 -2.23706,-1.83507 0,-1.01352 1.001602,-1.83509 2.23706,-1.83509 1.235459,0 2.236997,0.82157 2.236997,1.83509"
       style="fill:#005aab;fill-opacity:0.97802196;fill-rule:nonzero;stroke:none;stroke-width:0.00607583"
       id="path38" />
    <path
       d="m 44.277894,252.84384 c 0,0.98805 -0.809909,1.78903 -1.808167,1.78903 -0.998622,0 -1.808105,-0.80098 -1.808105,-1.78903 0,-0.98805 0.809483,-1.78909 1.808105,-1.78909 0.998258,0 1.808167,0.80104 1.808167,1.78909"
       style="fill:#005aab;fill-opacity:0.97802196;fill-rule:nonzero;stroke:none;stroke-width:0.00607583"
       id="path40" />
    <path
       d="m 128.56488,254.02076 c -0.26406,0.85096 -0.2934,0.95364 -0.79962,0.9903 -0.50613,0.0368 -1.55601,8.3e-4 -1.47444,-0.11006 0,0 0.74092,-0.99029 0.86559,-1.36441 0.12471,-0.37413 0.62351,-0.74825 1.07835,-0.76291 0.45485,-0.0146 0.59418,0.39612 0.33012,1.24708 z m 8.15294,-10.51124 c -0.33548,-0.0491 0.43366,-0.0818 0.52366,-0.10634 0.09,-0.0245 -0.58096,-0.42556 -0.86738,-0.41732 -0.28647,0.008 -0.23729,-0.10639 -0.22092,-0.21277 0.0163,-0.10645 -0.55642,0.0165 -0.30837,-0.19642 0.2481,-0.21277 -0.25623,-0.0817 -0.34624,-0.0736 -0.09,0.008 0.1636,-0.1964 0.33545,-0.49095 0.17182,-0.29461 -1.75925,0.81826 -1.98022,1.03104 -0.22091,0.21267 -0.41732,0.09 -0.39276,-0.13909 0.0245,-0.22915 -0.40908,-0.12276 -1.2192,0.2291 -0.81007,0.35188 -1.96388,0.21273 -3.18309,0.1309 -1.2192,-0.0817 -2.45484,-0.79369 -3.21577,-0.79369 -0.76101,0 -1.58752,-0.11459 -2.52035,-0.59735 -0.93284,-0.48278 -3.35649,-3.53079 -4.04456,-4.22388 -0.68806,-0.69314 -1.60888,-0.46544 -1.60888,-0.46544 0,0 0.13657,-0.16696 0.1568,-0.41485 0.0204,-0.24794 -0.21753,-0.36941 -0.2934,-0.36941 -0.0759,0 -0.0456,-0.14164 -0.14169,-0.2074 -0.0961,-0.0658 -0.0961,0.27829 -0.23272,0.34403 -0.13664,0.0658 -0.0809,-0.14672 -0.20237,-0.25296 -0.12147,-0.10624 -0.15181,0.50091 -0.21249,0.57168 -0.0608,0.0709 -0.086,-0.21754 -0.081,-0.3137 0.005,-0.096 -0.11131,0.17712 -0.091,0.34917 0.0202,0.17203 -0.0759,0.34909 -0.44016,0.77411 -0.36422,0.42495 -0.26307,0.65761 -0.26307,0.65761 0,0 -0.0608,0.0759 -0.22769,0.3238 -0.16702,0.24788 -0.30355,0.7286 -0.10625,0.58181 0.1973,-0.14676 0.55144,-0.27823 0.55144,-0.27823 0,0 0.007,0.0761 0.11815,0.37067 0.11046,0.29454 0.98191,0.4664 1.42374,0.71188 0.44188,0.24547 0.99423,3.1667 1.55882,5.52335 0.56466,2.35658 1.19062,2.31976 1.7184,2.99486 0.52778,0.67507 2.18479,1.76748 2.44254,1.91476 0.25772,0.14728 1.09237,2.02521 1.70609,2.51617 0.61372,0.49096 1.03104,0.84695 1.03104,0.84695 0,0 -1.4238,2.24612 -1.46062,2.24612 -0.0368,0 -0.35593,-0.0491 -0.46645,-0.0982 -0.11045,-0.0491 -0.23317,0.15958 -0.28229,0.25778 -0.0491,0.0982 -1.82881,-0.0368 -2.03747,0.0614 -0.20871,0.0982 1.7429,0.36823 1.7429,0.36823 0,0 -0.40505,0.23322 -0.71191,0.41733 -0.30686,0.18414 -0.40501,0.25773 0.11046,0.13502 0.51552,-0.12273 1.47293,-0.34369 1.89024,-0.35595 0.41732,-0.0122 0.41732,-0.36824 0.50322,-0.42962 0.0859,-0.0614 0.73648,0.38056 0.92058,0.36825 0.1841,-0.0122 -0.62598,-0.86101 -0.62598,-0.86101 0,0 0.23322,-0.5873 0.34367,-0.66099 0.11047,-0.0736 0.6628,0.14733 1.09239,0.19639 0.42962,0.0491 -0.33143,0.23323 -0.44189,0.34369 -0.11046,0.11046 0.11046,0.15954 0.56459,0.0859 0.45414,-0.0737 1.42387,-0.39279 1.5957,-0.42962 0.17184,-0.0367 0.47864,0.38051 0.65049,0.33144 0.17184,-0.0491 -0.12271,-0.23324 -0.24548,-0.49097 -0.12272,-0.25777 -0.25778,-0.55239 -0.15954,-1.0556 0.0983,-0.50327 0.54827,-1.77154 0.54827,-1.77154 0,0 1.75106,-0.45827 2.53662,-1.50563 0.78551,-1.04736 0.43364,-1.91475 0.43364,-1.91475 0,0 0.4665,-0.12277 1.35017,-0.55646 0.88377,-0.43365 1.23562,-1.21921 1.22744,-1.31737 -0.008,-0.0982 -0.401,0.0408 -0.401,0.0408 0.28642,-0.24547 0.58917,-0.5646 0.68737,-0.77732 0.0982,-0.21278 -0.4664,0 -0.4664,0 0,0 0.24549,-0.11459 0.67912,-0.4255 0.4337,-0.31094 0.61374,-0.72825 0.36821,-0.5974 -0.24544,0.1309 -0.70364,0.21278 -0.70364,0.21278 0.68731,-0.17185 1.26015,-0.96554 1.49737,-1.13739 0.23734,-0.17184 -0.30269,-0.36011 -0.5891,-0.44208 -0.28641,-0.0819 -0.24548,-0.25347 0.0244,-0.32715 0.27004,-0.0736 1.00648,0.1882 1.20561,0.31092 0.19907,0.12277 -0.4118,-0.49095 -0.74729,-0.54003"
       style="fill:#005aab;fill-opacity:0.97802196;fill-rule:nonzero;stroke:none;stroke-width:0.00502309"
       id="path14" />
    <path
       d="m 100.90174,242.39841 c 0,0 0.0859,-0.25775 0.24543,-0.34365 0.15958,-0.0859 0.18415,-0.0798 0.16571,0 -0.0183,0.0798 0.0183,0.15342 0.0614,0.11046 0.0431,-0.0429 0.19641,-0.18414 0.22092,-0.10433 0.0245,0.0797 0.0123,0.27618 0.0614,0.25161 0.0491,-0.0244 0.22709,-0.24548 0.27003,-0.17796 0.043,0.0675 -0.14726,0.45414 -0.0491,0.40501 0.0982,-0.0491 0.28234,-0.32524 0.30073,-0.21479 0.0184,0.11046 -0.0736,0.3498 -0.0429,0.3498 0.0306,0 0.39216,-0.14888 0.42325,-0.0469 0.0311,0.10202 0,0.33198 0.0813,0.32504 0.0813,-0.006 0.16255,0.0208 0.13663,0.0882 -0.026,0.0674 -0.0951,0.19358 -0.0416,0.27314 0.0536,0.0796 0.1539,0.34238 0.31986,0.36835 0.16603,0.026 0.26628,0.1954 0.28531,0.32505 0.0191,0.12969 0.005,0.14184 -0.0362,0.0986 -0.0416,-0.0431 -0.27662,-0.10182 -0.33197,-0.0829 -0.0553,0.019 0.12623,0.2179 0.18674,0.2715 0.0606,0.0536 0.0398,0.0675 -0.0657,0.0536 -0.10547,-0.0139 -0.86798,-0.13312 -1.00803,0.0641 -0.14004,0.19715 -0.31292,0.51024 -0.57921,0.52405 -0.26633,0.0138 -0.44957,-0.21439 -0.51703,-0.17806 -0.0675,0.0362 -0.73724,0.7515 -1.101412,1.28339 -0.364127,0.53191 -2.066159,2.69621 -2.508048,3.06439 -0.441879,0.36826 -0.748673,0.40506 -0.748673,0.40506 0,0 -0.285413,0.57692 -0.644422,0.93285 -0.359,0.35593 -0.322176,0.59222 -0.377436,0.71806 -0.05528,0.12578 -0.09203,0.15034 -0.09203,0.15034 0,0 0.06139,-0.313 -0.08903,-0.36518 -0.150338,-0.0522 -0.19329,-0.009 -0.19329,-0.009 0,0 -0.08592,0.26697 -0.257783,0.54928 -0.171839,0.2823 -0.270041,0.27923 -0.270041,0.27923 0,0 0.263913,-0.43881 0.09203,-0.45412 -0.171839,-0.0155 -0.602422,0.2117 -1.187518,0.65354 -0.585087,0.44188 -0.75281,0.57279 -0.748733,0.69555 0.005,0.12271 -0.008,0.15963 -0.208662,0.32323 -0.200481,0.16361 -0.355946,0.42546 -0.355946,0.42546 0,0 1.297017,1.29702 1.550634,1.51387 0.253667,0.21679 0.392808,0.24536 0.441889,0.24135 0.04917,-0.004 0.78145,-0.25768 0.986026,-0.43776 0.204547,-0.18008 0.544108,-0.29054 0.527784,-0.24959 -0.01642,0.0408 -0.114525,0.053 -0.139091,0.13913 -0.02444,0.0859 -0.02053,0.20037 -0.315056,0.33539 -0.294596,0.13503 -0.589152,0.28236 -0.589152,0.31098 0,0.0286 0.368253,0.32732 1.186506,0.45415 0.818264,0.12688 1.157826,0.38868 1.059623,0.38868 -0.09814,0 -0.09404,-0.004 -0.31093,0 -0.216843,0.004 -0.282298,0.004 -0.478702,-0.0368 -0.196354,-0.0408 -0.495036,-0.0983 -0.69143,-0.14317 -0.196394,-0.0451 -0.503219,0.0245 -0.707764,-0.004 -0.204586,-0.0285 -0.290531,-0.0736 -0.364167,-0.0736 -0.07361,0 -0.278223,-0.0368 -0.278223,-0.0368 0,0 0.368243,0.51151 0.405007,0.70373 0.03675,0.19229 -0.118583,0.54833 -0.155416,0.5074 -0.03675,-0.0408 -0.04086,-0.38051 -0.09404,-0.46641 -0.05317,-0.0859 -0.327363,-0.22508 -0.450071,-0.40506 -0.122757,-0.17998 -0.380551,-0.53997 -0.638293,-0.33955 -0.257733,0.20042 -0.445996,0.29862 -0.515506,0.29048 -0.0695,-0.008 -0.08593,-0.0165 -0.08593,-0.0165 0,0 -0.184106,0.10222 -0.18002,0 0.005,-0.10221 0.728244,-0.51955 0.756875,-0.67913 0.02865,-0.15954 -0.163657,-0.5359 -0.413248,-0.7487 -0.24951,-0.21278 -1.337806,-1.20297 -1.431943,-1.33387 -0.09414,-0.13086 -0.15959,-0.18811 -0.237342,-0.15542 -0.07782,0.0328 -0.216794,0.20866 -0.347704,0.25778 -0.130949,0.0491 -0.106384,0.15944 -0.225036,0.17586 -0.118641,0.0164 -0.265914,-0.0121 -0.339601,0.0451 -0.07361,0.0573 -0.40094,0.2496 -0.38045,0.1841 0.02043,-0.0655 0.03905,-0.1636 -8.31e-4,-0.22091 -0.03996,-0.0573 -0.522757,-0.0778 -0.715035,-0.10232 -0.192338,-0.0244 -0.286374,-0.09 -0.323197,-0.0286 -0.03675,0.0614 -0.212828,0.2578 -0.372359,0.21279 -0.159571,-0.045 -0.216794,-0.12271 -0.216794,-0.12271 0,0 -0.212778,0.10633 -0.560581,0.0817 -0.347753,-0.0245 -0.670991,-0.12678 -0.670991,-0.12678 0,0 -0.497079,1.98231 -0.484831,2.1541 0.01221,0.17184 0.184097,0.6321 0.71193,0.58916 0.527774,-0.043 0.625936,-0.12885 0.718009,-0.0736 0.09203,0.0553 0.09814,0.0675 0.171829,0.0429 0.07361,-0.0244 0.503277,0.0491 0.392808,0.0675 -0.1105,0.0184 -0.22095,0.0491 -0.294597,0.092 -0.07361,0.043 -0.184096,0.0553 -0.337548,0.0491 -0.153421,-0.006 -0.38046,0.0491 -0.607549,0.0737 -0.227099,0.0244 -0.668938,0.0122 -0.877589,-0.14115 0,0 -0.104332,0 0,0.26998 0.10428,0.27005 0.343677,0.79169 0.374322,0.99423 0.03074,0.20249 0.09203,0.32524 0.01221,0.30068 -0.07982,-0.0244 -0.177967,-0.17792 -0.245474,-0.2516 -0.0675,-0.0736 -0.362125,-0.66893 -0.472575,-1.02487 -0.110459,-0.35599 -0.07982,-0.60142 -0.110459,-0.65667 -0.03074,-0.0553 -0.245506,-0.22092 -0.245506,-0.41119 0,-0.19029 -0.06749,-0.42957 -0.09203,-0.46645 -0.02454,-0.0368 -0.429592,-0.0122 -0.503246,-0.0859 -0.07365,-0.0736 -0.147285,-0.17796 -0.20864,-0.24546 -0.06137,-0.0675 -0.104346,-0.11659 -0.05524,-0.11659 0.04907,0 0.245463,0.11046 0.441834,0.12271 0.196405,0.0122 0.257793,0.0429 0.313013,0.10433 0.05518,0.0615 0.270021,0.17797 0.362074,-0.12273 0.09203,-0.30072 0.478703,-1.61405 0.460316,-1.73064 -0.01843,-0.11657 -0.178017,-0.092 -0.294606,-0.2946 -0.116579,-0.20248 -0.202523,-0.54003 -0.202523,-0.54003 0,0 -0.355955,-0.29456 -0.509377,-0.45415 -0.153422,-0.15954 -0.374338,-0.38663 -0.405026,-0.4664 -0.03071,-0.0798 -0.159582,-0.14114 -0.257788,-0.56464 -0.09819,-0.42344 -0.227059,-0.62597 -0.227059,-0.71805 0,-0.092 -0.171842,-0.28843 -0.165681,-0.34364 0.0061,-0.0553 -0.239367,-0.23322 -0.11663,-0.28843 0.122753,-0.0553 0.270051,-0.13501 0.239359,-0.24552 -0.03071,-0.11045 -0.521656,-0.0183 -0.963514,-0.55231 -0.441875,-0.53393 -0.681193,-1.09853 -0.583027,-1.05557 0.0982,0.0429 0.245504,0.18413 0.20253,0.0675 -0.04294,-0.11658 -0.349814,-0.81621 -0.392783,-1.11694 -0.04294,-0.30073 0.07978,-0.49096 -0.07978,-0.50326 -0.159565,-0.0122 -0.313003,0.006 -0.343669,-0.19024 -0.03071,-0.1964 0.196394,-0.30072 0.12275,-0.38662 -0.07366,-0.0859 -0.509376,-0.3498 -0.515533,-0.42963 -0.0061,-0.0797 -0.03071,-0.11658 -0.03071,-0.11658 0,0 -0.177969,-0.0306 -0.116591,-0.12271 0.06136,-0.092 0.07978,-0.12277 0.07978,-0.12277 0,0 -0.411185,-0.14115 -0.466422,-0.25778 -0.05522,-0.11659 -0.09204,-0.12885 -0.184091,-0.15342 -0.09206,-0.0245 -0.38052,-0.14114 -0.312999,-0.17795 0.0675,-0.0368 0.1657,-0.006 0.184109,-0.0737 0.01841,-0.0675 -0.07977,-0.17185 0.05523,-0.1841 0.135016,-0.0123 0.300718,-0.0368 0.460304,0.0429 0,0 -0.233245,-0.20866 -0.214819,-0.27618 0.01841,-0.0675 0,-0.14728 0,-0.1964 0,-0.0491 0,-0.0797 0.03684,-0.0858 0.03686,-0.006 0.122777,0.0122 0.122777,-0.006 0,-0.0184 -0.153443,-0.14727 -0.135039,-0.20864 0.01841,-0.0615 0.04911,-0.092 0.159578,-0.15348 0.110455,-0.0614 0.337532,-0.25159 0.374362,-0.31298 0.03684,-0.0614 0.09816,-0.0797 0.233204,-0.0797 0.135009,0 0.405025,-0.0306 0.405025,-0.0306 0,0 -0.09819,-0.1534 -0.07977,-0.20865 0.01841,-0.0553 0.104307,-0.0614 0.288433,-0.0614 0.184113,0 0.454138,0.006 0.454138,0.006 0,0 -0.28231,-0.13503 -0.196384,-0.14734 0.08591,-0.0122 0.196384,0.006 0.196384,0.006 0,0 -0.0982,-0.13501 -0.07978,-0.13501 0.01841,0 0.57073,0.0675 0.963513,0.45414 0.392762,0.38663 0.589156,0.69349 0.736431,0.76713 0.147323,0.0736 0.325291,0.1534 0.44188,0.29455 0.116609,0.14116 0.349816,0.84695 1.699949,1.09856 1.350164,0.25161 2.884433,0.2823 4.117998,-0.092 1.233516,-0.37437 2.608245,-0.51552 3.074639,-0.33755 0.466445,0.17802 0.625986,0.36212 0.908324,0.27617 0.282299,-0.0859 2.405711,-1.031 3.49809,-1.39312 1.09236,-0.36205 2.313686,-0.58914 2.313686,-0.58914"
       style="fill:#005aab;fill-opacity:0.97802196;fill-rule:nonzero;stroke:none;stroke-width:0.00502309"
       id="path16" />
    <path
       d="m 111.27187,249.85571 c 0.11451,0.25963 0.12255,0.62628 0.12255,0.62628 h -0.26773 c 0,0 0.10701,-0.21384 -0.007,-0.20619 -0.11454,0.007 -0.4124,0.21381 -0.5194,0.084 -0.10649,-0.1298 -0.72534,-1.82524 -0.5877,-2.26822 0.13713,-0.44293 0.22151,-0.4353 0.22151,-0.4353 0,0 0.0764,0.60332 0.32801,0.98518 0.25217,0.3818 0.59575,0.95463 0.71027,1.21429 z m 5.10899,-10.43229 c -0.22955,-0.51928 -0.42747,-0.81715 -0.32802,-0.83243 0.0994,-0.0153 0.14518,0.084 0.27476,0.34364 0.1301,0.25969 -0.007,-0.0382 -0.0989,-0.38945 -0.0919,-0.35136 -0.5651,-0.87828 -0.77155,-1.08443 -0.20594,-0.20625 0.0306,-0.0917 0.11452,-0.0383 0.0839,0.0534 -0.015,-0.14513 -0.11452,-0.23674 -0.0994,-0.0916 0.22906,0.11458 0.4124,0.27495 0.18334,0.16035 -0.16778,-0.25205 -0.47367,-0.6339 -0.30541,-0.38185 -0.59373,-0.9243 -0.55958,-1.7832 0.0337,-0.85891 -0.80118,-2.07971 -2.20062,-1.93973 -1.39943,0.1399 -1.55866,1.78049 -1.55866,1.78049 -0.39079,0.55009 -0.37622,1.30767 -0.35714,1.36574 0.0196,0.058 0.26571,-0.15944 0.5887,-0.28492 0.32348,-0.12542 0.76753,-0.0481 1.04732,0.25579 0.27978,0.30393 0.44405,0.35221 0.46816,0.3715 0,0 -0.0396,0.21143 -0.0396,0.45202 0,0.24056 -0.52692,0.88206 -0.60729,1.09967 -0.0805,0.21769 0.35513,-0.0686 0.45811,-0.0916 0.10297,-0.0229 -0.24061,0.2062 -0.44655,0.38948 -0.20645,0.18331 -1.53506,0.37805 -1.94746,0.53844 -0.41241,0.16039 -1.22563,0.84769 -1.2834,0.90501 -0.0568,0.0573 -0.30892,0.0916 -0.80169,0.17184 -0.49277,0.0802 -1.306,0.83619 -1.35172,0.92792 -0.0457,0.0916 0.20645,-0.0688 0.60731,-0.30937 0.40083,-0.24057 0.73286,-0.21766 0.76752,-0.21766 0.0341,0 -0.88206,0.35519 -1.95901,1.14557 -1.07696,0.79043 -2.00473,3.12744 -2.05043,3.33357 -0.0462,0.20626 0.44656,-0.16605 0.85343,-0.0916 0.40636,0.0745 0.88757,-0.14316 0.88757,-0.14316 0,0 0.28079,0.28637 0.42949,0.48685 0.14918,0.20046 0.0286,-0.45255 0.20644,-0.53271 0.17732,-0.0802 0.34359,0.25201 0.64698,0.63581 0.30389,0.38373 0.55003,0.58997 0.58469,0.72168 0.0341,0.13176 0.0341,0.14316 -0.218,0.36659 -0.25217,0.22336 0.57263,0.25201 0.94534,0.47544 0.37221,0.22337 0.7389,0.60709 0.7389,0.60709 0,0 -0.0176,0.20052 -0.0176,0.39527 0,0.19474 0.20645,0.68158 0.40136,1.32308 0.1944,0.64155 -0.10348,1.13984 -0.3039,1.42053 -0.20042,0.28063 -0.24061,0.42959 -0.20594,0.54416 0.0341,0.11452 0.0513,-0.0229 0.0573,-0.063 0.006,-0.0401 0.0688,-0.0573 0.15471,-0.0631 0.0859,-0.006 0.35513,-0.43536 0.435,-0.45828 0.0804,-0.0229 0.16073,0.25208 0.22354,0.35513 0.0631,0.10315 0.2863,0.0229 0.45809,0.0745 0.1718,0.0516 0.4983,0.12595 0.62436,0.12595 0.12609,0 0.57868,0.10308 0.65302,0.22912 0.0743,0.12602 0.6299,0.58425 0.72734,0.53842 0.0974,-0.0457 -0.11452,-0.41812 -0.11452,-0.41812 0,0 0.1321,-0.0859 0.25769,-0.0974 0.12607,-0.0114 0.33253,0.0401 0.5445,0.0744 0.21197,0.0344 0.18335,-0.0629 0.28631,-0.0802 0.10297,-0.0172 0.31495,0.0802 0.50984,0.10309 0.19441,0.0229 0.19441,-0.063 0.29788,-0.063 0.10296,0 0.49829,0.12025 0.67006,0.0973 0.1718,-0.0229 0.0743,-0.17757 0.22907,-0.16035 0.1547,0.0171 0.16627,0.16035 0.16627,0.16035 0,0 0.0341,-0.18903 -0.0919,-0.25779 -0.12607,-0.0687 -0.62437,-0.10302 -0.86497,-0.11453 -0.24059,-0.0115 -0.54399,-0.0457 -0.54399,-0.0457 0,0 0.0115,-0.10883 0.0517,-0.12029 0.0396,-0.0114 0.20042,0.12029 0.20042,0.12029 0,0 0,-0.1031 -0.0346,-0.16038 -0.0342,-0.0573 -0.33756,-0.15465 -0.46363,-0.0973 -0.12609,0.0572 -0.45259,0 -0.45259,0 0,0 0.0341,-0.0916 0.11453,-0.10886 0.0804,-0.0171 0.18887,0.0803 0.18887,0.0803 0,0 -0.0171,-0.14895 -0.17732,-0.22916 -0.16074,-0.0802 -0.86096,0.0362 -1.04429,-0.0706 -0.18335,-0.107 -0.96997,-2.18416 -0.96997,-2.18416 0,0 0.27476,-0.35899 0.47316,-0.6874 0.19893,-0.32841 0.31346,-0.67205 0.51186,-0.93937 0.19843,-0.26733 1.48182,-0.65677 2.10016,-1.14552 0.61884,-0.48874 1.03124,-1.65727 1.24472,-2.00095 0.21399,-0.34368 0.89361,-1.09971 0.96996,-1.71071 0.0764,-0.61091 -0.10698,-1.89397 -0.0608,-1.86343 0.0457,0.0306 0.16777,0.11458 0.27476,0.35895 0.107,0.24444 -0.11452,-0.38185 -0.34409,-0.9012"
       style="fill:#005aab;fill-opacity:0.97802196;fill-rule:nonzero;stroke:none;stroke-width:0.00502309"
       id="path30" />
    <path
       d="m 178.88649,257.49069 c 0.009,0.13047 -0.52169,-0.1304 -0.63348,-0.20507 -0.11178,-0.0746 -0.0933,0.12108 -0.1677,0.20507 -0.0746,0.0839 -0.21434,-1.11805 -0.26089,-1.4814 -0.0466,-0.36335 0.34473,0.18631 0.35407,0.34465 0.009,0.15845 -0.17711,-0.0838 -0.22359,-0.13965 -0.0466,-0.0561 0.30745,0.68012 0.44711,0.941 0.13984,0.26089 0.48448,0.3354 0.48448,0.3354 z m 1.63982,0.20499 c 0.19565,0 0.41924,0.0465 0.4286,-0.0467 0.009,-0.093 0.0186,-0.14901 0.0932,-0.0838 0.0746,0.065 0.35399,0.22359 0.36333,0.46587 0.009,0.24212 -0.17705,0.41923 -0.26089,0.45646 -0.0839,0.0373 -0.72677,0 -0.72677,0 l -0.26078,-0.62423 c 0,0 0.16768,-0.16764 0.36333,-0.16764 z m -14.96196,-21.06662 c -0.34449,-0.0737 -0.49217,-0.23378 -0.78744,-0.17216 -0.29536,0.0614 -0.13803,-0.11074 -0.7888,-0.25845 -0.65081,-0.1476 -0.77394,-0.0841 -0.77394,-0.202 0,-0.11797 -0.13534,-0.3394 -0.30767,-0.31474 -0.17218,0.0245 -0.26402,0.11074 -0.35965,0.0491 -0.0955,-0.0618 -0.194,-0.19697 -0.194,-0.19697 0,0 0.66444,-0.23373 1.48893,0.0494 0.82435,0.28292 2.06709,1.11953 1.72257,1.04582 z m -4.08513,0.20923 c -0.0985,0.0739 -0.82441,0.47986 -1.39044,0.59063 -0.56598,0.11074 -1.25505,0.18459 -1.41503,0.36916 -0.0402,0.0464 0.66449,-1.62429 0.79981,-1.36584 0.13541,0.25839 0.30765,0.46753 0.40608,0.31994 0.0985,-0.14762 0.92281,-0.99676 1.07049,-0.68916 0.14761,0.30767 0.20915,0.46767 0.30759,0.51683 0.0985,0.0491 0.31989,0.18466 0.2215,0.25844 z m 28.74132,-2.72535 c -0.0903,-0.296 -0.49421,-0.55687 -0.49421,-0.55687 0,0 0.36122,-0.25594 0.48918,-0.59454 0.12793,-0.3387 -0.12792,-0.73753 -0.18819,-0.91817 -0.0602,-0.18065 0.0903,-0.60965 0.0452,-0.71499 -0.0452,-0.10532 -0.32607,0.19524 -0.43071,0.24353 -0.10479,0.0482 0,-0.92562 -0.0643,-1.0061 -0.0644,-0.0805 -0.36223,0.43456 -0.57154,0.61167 -0.20922,0.17703 -0.2495,-1.22349 -0.41854,-1.33616 -0.169,-0.11266 -0.42661,0.99803 -0.51509,1.12687 -0.0886,0.1287 -0.49907,-0.43463 -0.63584,-0.60367 -0.13685,-0.16902 -0.36224,-0.5232 -0.50719,-0.70829 -0.14483,-0.18514 -0.0966,0.74857 -0.0725,1.16702 0.0243,0.41862 -0.0804,0.49908 -0.63584,0.62792 -0.55537,0.1287 -0.68414,1.38443 -0.68414,1.38443 -2.96277,-0.0733 -4.95432,2.49651 -5.99292,4.39306 -1.03861,1.89654 -2.18247,2.905 -3.71772,3.17585 -1.53533,0.27093 -2.92007,0.0753 -3.26623,-0.39128 -0.34614,-0.46668 -0.88809,-0.99347 -1.49016,-1.30946 -0.60202,-0.31617 -0.52679,-0.96341 -1.58031,-2.45349 -1.05369,-1.49018 -1.97184,-2.13733 -2.34813,-2.52863 -0.3763,-0.39144 -1.39975,-0.76767 -2.8297,-1.06867 -1.4299,-0.30099 -1.94162,-0.271 -1.94162,-0.271 l 0.60206,0.16565 c -1.15902,-0.0753 -1.70086,0.587 -1.92662,0.64715 -0.22578,0.0602 -0.18063,0.15049 -0.18063,0.15049 -0.87303,-0.0152 -1.29442,0.54187 -1.52021,0.64731 -0.17018,0.0794 0.29205,0.005 0.53032,-0.0366 -0.19582,0.0617 -0.61548,0.2798 -1.29798,1.0451 -0.99339,1.11374 -1.49009,4.31974 -1.49009,4.31974 -0.51174,0.46665 -1.86641,2.78455 -1.83632,2.95011 0.0301,0.16559 1.71591,-1.42987 1.71591,-1.42987 0,0 -0.39133,2.28792 0,4.07903 0.39133,1.7911 1.80619,2.60398 1.62558,2.28782 -0.18059,-0.31607 -0.94827,-3.31143 -0.94827,-3.31143 0,0 0.5268,1.21931 1.00844,1.94175 0.48165,0.72247 1.32453,0.9934 1.32453,0.9934 0,0 0,0 -0.48164,-0.42144 -0.48166,-0.42144 -0.79769,-1.05367 -0.42139,-0.94824 0.37629,0.10532 0.40638,0.39129 0.40638,0.39129 0,0 0.0903,-0.57193 -0.69243,-2.15232 -0.78264,-1.58055 -0.60202,-3.85324 -0.60202,-3.85324 0,0 0.10531,-0.0903 0.19566,-0.18065 0.0904,-0.0904 0.42144,-0.39127 0.63214,-0.51179 0.21073,-0.12031 0.43656,-0.19558 0.97836,-0.42137 0.54191,-0.22579 0.97842,0.0904 0.97842,0.0904 -1.39981,0.58709 -2.18613,2.14093 -2.24275,2.21262 0.66225,-0.87294 2.03201,-1.41495 2.03201,-1.41495 -0.84293,1.73105 -0.878,3.58243 -0.67736,4.52564 0.20069,0.94314 0.75265,1.98675 0.63218,0.6021 -0.12029,-1.38484 0.52185,-3.18104 0.6121,-3.33146 0.0904,-0.15052 0.74259,0.11035 0.74259,0.11035 0,0 -0.4917,1.04354 -0.4917,1.25426 0,0.21071 0.76259,0.32119 0.78268,0.5619 0.0201,0.24086 -0.21072,1.55542 -0.24419,1.8364 -0.0335,0.28091 0.0434,0.8629 0.0133,1.36473 -0.0301,0.50159 0,2.58875 0,2.66908 0,0.0801 0.31105,-0.27103 0.56196,-1.57537 0.25083,-1.30444 0.22069,-2.4283 0.21072,-2.61893 -0.0107,-0.19068 0.60201,0.35112 0.65218,0.83276 0.0503,0.48166 0.0107,3.61245 0.59202,6.06083 0.582,2.44838 1.59555,2.82962 1.73601,2.8999 0.14046,0.0703 -0.35118,-0.21073 -0.89313,-1.19406 -0.54188,-0.98332 -0.45152,-3.17097 -0.38125,-3.38154 0.0703,-0.21079 0.23075,1.00335 0.46155,1.70577 0.23082,0.70235 1.20419,1.82629 1.37479,1.98675 0.17059,0.16062 -0.27101,-0.89304 -0.0804,-0.56189 0.19063,0.33115 1.47513,1.3948 1.18409,1.00351 -0.29104,-0.39137 -1.16398,-1.97686 -1.38484,-2.47854 -0.22067,-0.50166 -0.12029,-0.582 -0.36121,-1.51523 -0.24079,-0.93316 -0.22076,-1.44486 -0.22076,-1.44486 0,0 0.25091,0.38122 0.25091,0.69234 0,0.31108 0.28097,1.11383 0.44153,1.59546 0.16056,0.48167 0.82278,0.78268 1.2944,1.25436 0.47168,0.47153 0.75256,0.88308 1.28438,1.30443 0.53182,0.42144 1.5855,0.86298 1.71592,0.84287 0.13039,-0.0201 -1.19404,-0.87301 -1.5654,-1.51522 -0.37127,-0.64221 -1.11382,-1.57537 -1.12378,-1.73591 -0.0107,-0.16048 -0.0804,-0.3913 -0.0804,-0.3913 0,0 0.24079,0.16048 0.32109,0.22068 0.0803,0.0604 0.39138,0.24079 0.47161,0.37135 0.0803,0.13041 0.19063,0.22069 0.38133,0.36114 0.19062,0.14047 0.35124,0.0802 0.35124,0.0802 0,0 -0.0402,-0.2207 -0.1003,-0.50166 -0.0603,-0.281 -0.1003,-0.33117 -0.12043,-0.4717 -0.0201,-0.14037 -0.15057,-0.23066 -0.18065,-0.44145 -0.03,-0.21071 0,-0.84288 0,-0.84288 0.0201,0.26088 0.20074,0.56189 0.20074,0.56189 0,-0.20058 0.19064,-0.60201 0.19064,-0.60201 0,0.76264 0.31104,1.41489 0.31104,1.41489 -0.12043,-0.50168 0,-1.37477 0,-1.37477 0,0.84288 0.86298,1.47503 0.86298,1.47503 -0.46165,-0.55191 -0.4716,-1.54521 -0.4716,-1.54521 0.0402,0.49169 0.41137,0.70235 0.41137,0.70235 -0.53181,-0.53184 -0.11035,-1.66574 -0.11035,-1.66574 0,0 0.75251,0.44153 0.91314,0.69246 0.16049,0.25091 0.52178,0.57194 0.88299,0.84295 0.36123,0.27084 1.89656,0.96321 2.59896,1.37454 0.70236,0.41146 1.62555,0.21077 1.62555,0.21077 0,0 0.11035,0.49181 0.20075,0.86298 0.0903,0.37129 0.11035,0.51173 0.10029,0.7727 -0.0107,0.26096 0.35119,2.12729 0.35119,2.32795 0,0.20068 -0.0402,0.41146 -0.21072,0.46156 -0.17053,0.0503 -0.58207,-0.22077 -0.58207,-0.22077 0,0 0.0301,0.23074 0.16063,0.43149 0.1304,0.20066 0.71239,0.2308 0.71239,0.2308 0,0 -0.0301,0.49163 -0.0402,0.61215 -0.0107,0.1203 -0.68232,0.40126 -0.74253,0.72243 -0.0602,0.32119 0.36121,0.42144 0.36121,0.42144 0,0 -0.14045,-0.16056 -0.13038,-0.26095 0.0107,-0.1003 0.13038,-0.06 0.29094,-0.0902 0.16063,-0.0301 0.35116,-0.27093 0.35116,-0.27093 0,0 0,0.15042 0,0.24078 0,0.0902 0.57203,-0.0201 0.81281,0.1203 0.24087,0.14052 0.81289,0.12043 0.81289,0.12043 0,0 -0.1003,0.0905 -0.16063,0.17068 -0.0602,0.0803 -0.34114,0.12029 -0.36123,0.21072 -0.0201,0.0902 0.19071,0.26081 0.30109,0.26081 0.11035,0 0.44154,-0.22079 0.65226,-0.27086 0.21071,-0.0502 0.16046,0.20068 0.17051,0.3211 0.0107,0.12029 0.32112,0.20068 0.36131,0.27094 0.0402,0.0702 -0.0402,0.18058 -0.0402,0.26081 0,0.0803 0.50175,0.19068 0.71247,0.17059 0.21072,-0.0201 0.22076,-0.31107 0.26089,-0.39378 0.0402,-0.0828 1.01347,-0.0275 1.47504,-0.002 0.46164,0.0256 0.65223,-0.18611 0.6824,-0.19618 0.03,-0.0107 0.22068,-0.0107 0.41138,-0.0107 0.19069,0 0.36131,-0.0107 0.56196,0.0301 0.2006,0.0403 0.88292,0.26089 0.96323,0.14056 0.0803,-0.12043 -0.73249,-0.38133 -1.13391,-0.63422 -0.40132,-0.25294 -0.65218,-0.0884 -1.15392,-0.007 -0.50175,0.0804 -0.78273,-0.47176 -0.78273,-0.47176 0,0 0,0 0.0107,-0.19055 0.0107,-0.19062 -0.54187,-0.57202 -0.92319,-0.79279 -0.38133,-0.22069 -0.65226,0.13056 -0.77269,0.23075 -0.12031,0.10041 -0.31106,0.11048 -0.64219,-0.69231 -0.3311,-0.80283 -0.87304,-2.34301 -0.87304,-2.34301 0,0 0.16566,-0.45159 0.34622,-0.9634 0.18066,-0.51172 1.4751,-2.88991 2.07714,-3.53706 0.60209,-0.64724 3.65758,-2.88994 5.37348,-5.49384 1.71589,-2.60393 1.79611,-6.86861 1.79611,-6.86861 0,0 0.23082,0.2659 0.3964,0.24088 0.16558,-0.0251 0.38132,-0.35629 0.38132,-0.35629 0,0 0.17061,-0.0402 0.38131,-0.39137 0.21072,-0.35119 0.39633,-0.99841 0.1856,-1.40979 -0.21071,-0.41138 -0.38634,-0.88299 -0.36624,-0.97336 0.0202,-0.0904 0.44154,-0.18064 0.44154,-0.18064 0,0 0.0652,0.0251 0.24087,0.0954 0.17562,0.0702 0.44146,0.0853 0.44146,0.0853 0,0 0.11035,-0.22569 0.0201,-0.52175"
       style="fill:#005aab;fill-opacity:0.97802196;fill-rule:nonzero;stroke:none;stroke-width:0.00785092"
       id="path18" />
    <path
       d="m 213.4255,230.91033 c 0,0 -0.2872,-0.21539 -0.29826,-0.57994 -0.011,-0.36461 0.12152,-0.63528 0.11046,-0.75674 -0.011,-0.12152 -0.0111,-0.14916 0.0608,-0.15469 0.0718,-0.005 0.0718,-0.005 0.0718,-0.005 0,0 0.0166,-0.51924 0.0829,-0.48612 0.0663,0.0332 0.43082,0.36454 0.44188,0.24862 0.011,-0.11599 -0.14363,-0.19333 -0.11051,-0.40326 0.0332,-0.20991 -0.006,-0.45841 0.0718,-0.44183 0.0773,0.0165 0.46401,0.57441 0.48059,0.44183 0.0166,-0.13257 0.10493,-0.92243 0.20986,-0.90037 0.10494,0.0221 0.3038,0.72362 0.37555,0.66287 0.0718,-0.0608 0.20998,-0.83963 0.28727,-0.82856 0.0773,0.011 0.20991,0.80639 0.29831,0.7014 0.0884,-0.10488 0.28167,-0.66282 0.3535,-0.6407 0.0718,0.0222 0.0855,0.57994 0.2002,0.53582 0.11471,-0.0443 0.12018,-0.0663 0.23064,-0.11598 0.11051,-0.0497 0.0938,-0.19886 0.17121,-0.1381 0.0773,0.0608 0.16016,0.30925 0.19334,0.30379 0.033,-0.006 0.15468,-0.0386 0.17674,0.16022 0.0222,0.19874 0.0388,0.25409 0.13811,0.35342 0.0994,0.0993 0.20426,0.12146 0.0607,0.19886 -0.14351,0.0773 -0.2982,0.19328 -0.33691,0.24305 -0.0386,0.0497 -0.0662,0.0773 -0.15462,0.14369 -0.0884,0.0662 -0.28168,0.12145 -0.28168,0.12145 0,0 1.21529,-0.0275 1.90568,1.02183 0.69041,1.04954 1.77871,3.94929 3.6822,4.01497 1.90355,0.0657 3.50697,-0.31886 4.61343,-0.29073 1.10647,0.0282 2.08159,-0.6376 2.81306,-1.28455 0.7314,-0.64702 1.6316,-1.89852 2.66304,-1.87288 1.03135,0.0255 1.38764,0.53189 1.38764,0.53189 0,0 -0.009,0.0657 -0.14059,0.14071 0,0 0.4501,0.47822 0.47817,0.6283 0.0282,0.14994 -0.38442,0.73135 -0.38442,0.73135 0,0 0.22505,0.009 0.25313,0.0375 0.0281,0.0282 -0.15932,0.47817 -0.39373,0.75013 -0.23446,0.27201 -0.39395,0.35634 -0.39395,0.35634 0,0 0.2533,0.0188 0.40325,0.075 0.15001,0.0563 0.37513,-0.075 0.35635,0.0282 -0.0188,0.10312 -0.29073,0.45005 -0.39384,0.56262 -0.10316,0.11254 0.20634,0.19687 0.19698,0.32811 -0.009,0.13129 -0.35634,0.54391 -0.66579,0.74082 -0.30951,0.19692 -0.46886,0.26248 -0.45951,0.38447 0.009,0.12188 -0.30008,0.38437 -0.30008,0.38437 0,0 -0.23435,0.10316 -0.21558,0.31886 0.0188,0.21563 0.25324,0.67502 -0.0188,0.83445 -0.27202,0.15943 -0.53443,0.21575 -0.53443,0.21575 0,0 0.22505,0.57186 0.28118,0.90014 0.0563,0.32821 0.009,0.40319 -0.0843,0.43132 -0.0938,0.028 -0.52506,0.30938 -0.52506,0.30938 0,0 0.10322,0.15949 0.11258,0.2626 0.009,0.10317 -0.0189,0.20633 -0.14077,0.33756 -0.12183,0.13125 -0.38443,0.25312 -0.38443,0.25312 0,0 0.22506,0.94716 -0.46881,2.16604 -0.69392,1.21899 -2.42862,2.00667 -2.42862,2.00667 0,0 0.48751,2.73801 0.58144,3.0381 0.0937,0.30002 0.13598,0.19685 0.15932,0.26248 0.0234,0.0657 0.16405,0.19691 0.35634,0.28131 0.1923,0.0845 0.89072,0.24853 0.77832,0.30007 -0.11264,0.0514 -0.21569,0.0468 -0.21569,0.0468 0,0 -0.1361,0.17815 -0.29066,0.14533 -0.15476,-0.0328 -0.2205,-0.11247 -0.25325,-0.11714 -0.0328,-0.005 -0.0421,0.0141 -0.12656,-0.0188 -0.0845,-0.0328 -0.11259,-0.0703 -0.14066,-0.0422 -0.0282,0.0282 -0.0514,0.0656 -0.0514,0.11248 0,0.0469 0.0608,0.38454 0.0139,0.43606 -0.0469,0.0516 -0.23436,0.0985 -0.23436,0.0985 0,0 -0.17352,0.23909 -0.37037,0.26254 -0.19699,0.0234 -0.286,0.0375 -0.36104,0.0375 -0.075,0 -0.20159,-0.0563 -0.15943,-0.12194 0.0423,-0.0656 0.075,-0.1031 0.075,-0.1031 0,0 -0.14522,-0.0377 -0.35623,-0.0377 -0.21101,0 -1.36433,0.0283 -1.46276,0.0377 -0.0984,0.009 -0.26727,0.16879 -0.47822,0.0516 -0.21102,-0.1172 -0.0891,-0.22981 -0.22037,-0.1595 -0.1313,0.0703 -0.25792,0.31894 -0.27189,0.27202 -0.014,-0.0469 0.0562,-0.49231 0.40318,-0.52048 0.34693,-0.0281 0.81106,0 0.96575,-0.0422 0.1547,-0.0422 0.48765,-0.0469 0.70322,-0.061 0.21569,-0.014 0.58614,-0.16404 0.69867,-0.20155 0.11252,-0.0375 0.014,-0.89076 0.005,-1.11109 -0.009,-0.2204 -0.23909,-1.86132 -0.31419,-1.89885 -0.075,-0.0376 -0.72666,0.0515 -1.07832,-0.15003 -0.35162,-0.2016 -0.75943,-0.36571 -0.95641,-0.47355 -0.19692,-0.10778 -0.58607,-0.2203 -0.71731,-0.1782 -0.13124,0.0423 -0.73147,0.57198 -0.86739,0.69853 -0.13585,0.12662 -0.17341,0.14546 -0.17341,0.14546 0,0 -1.20957,1.66909 -1.37841,1.99725 -0.16873,0.32815 -0.19218,0.50635 -0.19686,0.58128 -0.005,0.075 -0.0517,0.15007 -0.0658,0.15473 -0.0139,0.005 0.17826,0.23441 0.35634,0.3001 0.17821,0.0656 0.45016,0.12662 0.50637,0.30002 0.0563,0.17352 0.10784,0.23447 0.0563,0.21102 -0.0516,-0.0235 -0.10317,-0.0985 -0.2485,-0.0891 -0.14534,0.009 -0.30483,0.0518 -0.42197,-0.0233 -0.1172,-0.075 -0.24856,-0.23442 -0.34699,-0.2532 -0.0985,-0.0188 -0.22031,-0.009 -0.24377,0 -0.0233,0.009 0.0234,0.23902 -0.0608,0.27657 -0.0845,0.0376 -0.17353,0.0376 -0.17353,0.0376 0,0 -0.16399,0.22983 -0.35162,0.22044 -0.18761,-0.009 -0.61414,0.005 -0.54851,-0.11727 0.0656,-0.12182 0.14533,-0.15003 0.14533,-0.15003 0,0 -0.55789,0.0186 -0.66574,0.0234 -0.10783,0.005 -1.16277,0.005 -1.2284,0.005 -0.0656,0 -0.29535,0.1078 -0.40314,0.0468 -0.1079,-0.0609 -0.14533,-0.19217 -0.28131,-0.14059 -0.13597,0.0516 -0.24381,0.28138 -0.28131,0.26253 -0.0375,-0.0188 0.10305,-0.48758 0.45939,-0.52973 0.35642,-0.0423 0.83464,-0.0283 0.97525,-0.0704 0.14065,-0.0422 0.56729,-0.0423 0.70788,-0.0657 0.14066,-0.0234 0.36103,-0.0891 0.53449,-0.11247 0.17352,-0.0234 0.22974,-0.0562 0.34226,-0.3047 0.11252,-0.24856 0.34225,-0.33763 0.45945,-0.49231 0.1172,-0.15476 1.20028,-1.65033 1.20028,-1.77688 0,-0.12662 -0.57671,-0.33289 -0.74544,-0.61415 -0.16885,-0.2813 -0.3329,-0.76896 -0.34231,-0.74083 -0.009,0.0282 -0.25312,-0.16877 -0.30939,-0.50162 -0.0563,-0.33289 -0.16884,-0.73148 -0.34698,-0.88615 -0.17821,-0.15469 -1.51902,-0.81107 -2.07223,-1.16736 -0.5532,-0.35634 -1.43936,-1.3831 -1.71132,-1.86595 -0.27189,-0.4829 -1.71125,-3.58656 -1.85191,-4.52424 -0.14065,-0.93774 0.0938,-2.08163 0.36576,-2.47547 0,0 -0.57203,-0.22505 -0.78766,-0.8533 -0.2157,-0.62824 0,-1.02207 0,-1.02207 0,0 -0.17814,-0.0377 -0.44074,0.0936 -0.26254,0.13136 -0.54385,0.16891 -0.54385,0.16891 0,0 -0.22504,-0.29067 0.30944,-0.77831 l -0.0575,-0.0806"
       style="fill:#005aab;fill-opacity:0.97802196;fill-rule:nonzero;stroke:none;stroke-width:0.00607583"
       id="path20" />
    <path
       d="m 209.2927,223.77835 c 0,0 0.10208,-0.0876 0.0535,-0.18489 -0.0486,-0.0974 -0.0293,-0.21216 0.0839,-0.26259 0.1124,-0.0505 0.39249,-0.0869 0.44475,-0.20335 0,0 -0.0711,-0.0209 -0.0279,-0.19468 0.0438,-0.17384 0.0225,-0.4103 -0.002,-0.59634 -0.0244,-0.18599 -0.0328,-0.34589 -0.0693,-0.30944 -0.0365,0.0366 -0.30257,0.31636 -0.38095,0.31636 -0.0778,0 -0.12395,-0.18446 -0.16345,-0.46826 -0.0395,-0.28387 -0.16829,-0.65503 -0.18774,-0.59603 -0.0194,0.059 -0.23331,0.91258 -0.27706,0.89077 -0.0438,-0.0219 -0.59239,-1.18989 -0.66834,-1.1346 -0.0753,0.0554 0.18654,0.91417 0.11667,0.98405 -0.0699,0.0698 -0.79473,-0.76277 -0.84698,-0.72206 -0.0529,0.0407 0.10997,0.44251 0.15979,0.58809 0.0497,0.1455 0.0699,0.20377 0.0206,0.20377 -0.0497,0 -0.73702,-0.26776 -0.73702,-0.17468 0,0.0932 0.12517,0.25033 0.11668,0.30865 -0.008,0.0582 -0.0929,0.12796 -0.0759,0.23575 0.0177,0.10772 0.0529,0.22414 0.1051,0.30562 0.0523,0.0815 0.22967,0.24169 0.22967,0.24169 0,0 -1.04443,1.08569 -1.31268,1.87171 -0.26782,0.78604 -0.43084,1.19367 -0.58802,1.45554 -0.15718,0.26205 -0.27512,0.37128 -0.19212,0.30573 0.0829,-0.0655 0.2838,-0.27069 0.28817,-0.19649 0.004,0.0742 -0.0873,0.79034 -0.16154,1.09601 -0.0742,0.30573 -0.22068,0.51092 -0.15396,0.53273 0.0666,0.0218 0.0666,0.0524 0.0666,0.0524 0,0 0.0715,1.06243 -0.8602,1.7262 -0.93161,0.66372 -2.09591,0.94322 -2.48027,0.83841 -0.38424,-0.10474 -0.58213,-0.22122 -1.08289,-0.30276 -0.50072,-0.0816 -0.9897,-0.19789 -1.22264,-0.48899 -0.23295,-0.29115 -1.29246,-1.68853 -1.49041,-2.60841 -0.19801,-0.91981 -0.0468,-1.8397 -0.19801,-1.68842 -0.15135,0.15136 -0.19795,0.27179 -0.19795,0.27179 0,0 -0.64051,-1.6691 -0.91999,-1.70409 -0.27944,-0.0349 -0.47738,0.10481 -0.66361,0.33776 -0.18635,0.23288 -0.48904,0.24448 -0.45417,0.76852 0.0349,0.52398 0.37257,0.94321 0.31436,1.14116 -0.0581,0.19789 -0.34923,1.01297 -0.6986,0.91989 -0.34936,-0.0931 -0.85007,-0.32602 -0.87333,-0.10481 -0.0233,0.22129 0.10475,0.55898 0.17468,0.74532 0.0698,0.18616 0.0466,1.15264 -0.0233,1.32732 -0.0699,0.17469 -0.62885,0.3843 -0.55891,0.79187 0.0699,0.4075 0.3609,0.56681 0.37263,0.6153 0.0116,0.0485 0.16004,0.30458 0.0204,0.47051 -0.13974,0.166 -0.38428,0.49779 -0.32317,0.7424 0.0611,0.2445 -0.009,0.41918 0.10482,0.53272 0.11349,0.11345 0.16586,0.5065 0.31442,0.72485 0.14843,0.21831 0.27942,0.27075 0.27942,0.27075 0,0 0.131,0.53364 0.41049,0.8607 0.27949,0.32706 0.47161,0.38819 0.4803,0.4318 0.009,0.0437 -0.009,0.23582 0.19212,0.52398 0.20086,0.28812 0.34936,0.2795 0.41048,0.58517 0.0611,0.30561 0.12224,0.46279 0.12224,0.46279 0,0 -0.66372,0.78603 -0.45411,1.37121 0.20962,0.58509 0.6899,1.17019 1.05671,1.46713 0.3668,0.29697 0.46285,0.3581 0.46285,0.3581 0,0 0.59385,0.98683 1.14409,1.24008 0.55022,0.25329 1.65061,0.1485 1.67679,0.1398 0.0262,-0.009 0.35807,0.72485 0.6463,1.16146 0.28811,0.43667 0.65503,0.73359 0.65503,0.73359 l 0.41352,1.10914 c 0,0 -0.23896,0.17468 -0.36996,0.23581 -0.13093,0.0612 -0.38428,0.0873 -0.41917,0.13974 -0.035,0.0524 -0.18343,0.25331 -0.0873,0.18336 0.096,-0.0698 0.12219,-0.13974 0.19212,-0.0873 0.0699,0.0524 0.0786,0.27072 0.26197,0.20079 0.18338,-0.0698 0.19214,-0.10474 0.23581,-0.1135 0.0436,-0.009 0.13744,-0.0436 0.18653,-0.0873 0.0493,-0.0436 0.15408,-0.0436 0.15408,-0.0436 l 0.096,0.035 c 0,0 0.0436,0 -0.0261,0.16599 -0.0699,0.16592 -0.035,0.38417 0.0349,0.50655 0.0699,0.12218 0.14856,0.36678 0.12232,0.41911 -0.0262,0.0525 -0.10482,0.18341 -0.0524,0.19216 0.0524,0.009 0.33186,-0.13974 0.33186,-0.13974 0,0 0.0611,0.16594 0.0699,0.50653 0.009,0.34063 -0.0523,0.60262 -0.18337,0.78599 -0.13112,0.18341 -0.33199,0.4978 -0.27955,0.47159 0.0524,-0.0262 0.16593,0.002 0.16593,0.002 0,0 0.17462,0.12949 0.41043,-0.21113 0.23591,-0.34057 0.51533,-0.55891 0.88215,-0.54146 0.36679,0.0174 1.73787,0.41923 2.01741,0.42791 0.27942,0.009 0.34924,0 0.34924,-0.0785 0,-0.0786 0.21862,-0.0174 0.22712,-0.0437 0.008,-0.0262 0.0346,-0.13098 -0.25324,-0.20085 -0.28824,-0.0698 -1.01315,-0.25327 -1.27515,-0.34925 -0.26193,-0.0961 -0.40171,-0.17467 -0.40171,-0.17467 0,0 0.7162,-0.11357 0.90832,-0.16599 0.19212,-0.0524 0.21825,-0.17469 0.26193,-0.20962 0.0437,-0.0349 0.33192,-0.0612 0.41929,-0.0612 0.0873,0 0.096,-0.035 -0.22717,-0.0873 -0.32312,-0.0525 -1.03921,0.0611 -1.406,0.035 -0.36681,-0.0262 -0.63754,-0.0611 -0.75978,-0.21838 -0.12226,-0.15724 -0.3668,-0.5589 -0.3668,-0.5589 0,0 0.26197,0.0785 0.48904,0.13978 0.22704,0.0612 0.53272,0.227 0.75971,0.26188 0.22717,0.0351 0.34075,0.17912 0.49786,0.18349 0.15725,0.004 0.2271,-0.12225 0.2271,-0.12225 0,0 0.33632,0.12723 0.34932,0.19645 0,0 -0.0873,-0.31 -0.34932,-0.47154 -0.26197,-0.16156 -1.22269,-0.44106 -1.1615,-0.48042 0.0611,-0.0393 0.71171,-0.12219 0.86016,-0.13101 0.14847,-0.009 0.27073,-0.013 0.26203,-0.10912 -0.009,-0.096 -0.0524,-0.12662 -0.0524,-0.12662 0,0 0.32316,0.083 0.31442,0.0524 -0.009,-0.0306 -0.20524,-0.20523 -0.77297,-0.14855 -0.56755,0.0568 -1.14833,0.0743 -1.33176,-0.0742 -0.18337,-0.1485 -0.5676,-1.19646 -0.58072,-1.3012 -0.0132,-0.10488 0.25324,-0.65503 0.27067,-0.99558 0.0174,-0.34068 0.131,-0.71616 0.29693,-0.88216 0.16599,-0.16587 1.45849,-0.9169 1.83398,-1.20519 0.37555,-0.28818 1.20538,-1.10915 1.91262,-2.07849 0.70721,-0.96939 1.87743,-1.62437 2.18364,-2.22697 0.30502,-0.6026 1.28625,-3.12067 0.92535,-4.40157 -0.36091,-1.28078 -0.73335,-2.59674 -0.94297,-3.31868 -0.20962,-0.72187 -0.23269,-1.35073 -0.23269,-1.35073 0,0 0.39857,-0.50945 0.39857,-0.85881 0,-0.34937 -0.13124,-0.73359 -0.0875,-0.78591 0.0438,-0.0524 0.48911,-0.14855 0.41072,-0.3668 -0.079,-0.21836 -0.29042,-0.45046 -0.29042,-0.45046"
       style="fill:#005aab;fill-opacity:0.97802196;fill-rule:nonzero;stroke:none;stroke-width:0.00607583"
       id="path32" />
    <path
       d="m 214.08827,263.58284 c 0,0 0.49336,-0.30579 0.58207,-0.55248 0.0887,-0.24668 0.4733,-0.28611 0.49335,-0.53279 0.0194,-0.24661 0.41437,-0.27614 0.54561,-0.3815 0.13184,-0.10523 -0.20354,-0.0263 -0.35482,-0.10523 -0.15129,-0.0789 -0.17135,-0.24985 -0.0596,-0.40118 0.1118,-0.15129 0.66468,-0.0724 0.53953,-0.19085 -0.12516,-0.11829 -0.38826,-0.1446 -0.0396,-0.38138 0.34875,-0.23678 0.41436,-0.40118 0.30257,-0.37494 -0.11179,0.0263 -0.65799,0.17753 -0.81537,0.10523 -0.15797,-0.0723 -0.0134,-0.32888 0.32871,-0.59197 0.34205,-0.26308 0.58509,-0.46697 0.5061,-0.46035 -0.0784,0.007 -0.76249,0.19739 -0.723,0.0328 0.0395,-0.16446 0.53223,-0.74331 0.38763,-0.67751 -0.14461,0.0658 -1.03229,0.57222 -1.07846,0.37494 -0.0462,-0.19734 0.42773,-0.99314 0.32869,-0.92741 -0.0984,0.0657 -0.45385,0.26302 -0.53891,0.15785 -0.0857,-0.10524 -0.57903,-0.48667 -1.01346,-0.36832 -0.43381,0.11836 -0.42713,0.62484 -0.401,0.86155 0.0261,0.23684 0.0589,0.48018 0.0589,0.48018 0,0 -1.34154,-0.97997 -1.78205,-1.5785 -0.44049,-0.59853 -2.54577,-3.07157 -3.51244,-4.94615 -0.96666,-1.87451 -8.42534,-4.75543 -10.47775,-5.20922 -2.05181,-0.45388 -1.59793,0.0986 -1.75592,0 -0.15796,-0.0986 -3.03895,-0.39471 -3.9861,-0.29603 -0.9471,0.0986 -1.47977,0.17759 -1.71661,0.0789 -0.23676,-0.0986 -1.10507,-0.84849 -1.63786,-0.73008 -0.53267,0.11842 -2.05047,0.51432 -2.1113,1.34173 0,0 0.27633,-0.0789 0.6907,-0.13811 0.41432,-0.0593 0.76903,0.25635 0.64223,0.31826 -0.12681,0.0619 -1.07634,0.54998 -1.07634,0.70783 0,0.15784 0.6709,0.29595 0.84843,0.17759 0.17765,-0.11842 0.37076,0.41438 0.37076,0.41438 0,0 -0.52855,0.39462 -0.76532,0.51298 -0.23684,0.11842 -0.41449,0.8288 -0.41449,0.8288 0,0 0.91915,-0.43418 1.17981,-0.11842 0.2607,0.31571 0.31988,0.59197 0.59615,0.76956 0.27621,0.1776 0.35513,0.31571 0.35513,0.31571 l 0.1381,0.0986 c 0,0 -0.35519,-0.13817 -0.2762,0.0789 0.0789,0.21702 0.76956,0.76956 0.84843,0.94709 0.0789,0.17759 0.4736,0.57228 0.65114,0.57228 0.17772,0 0.17772,0 0.17772,0 0,0 0,0.43412 0.27616,0.88787 0.27626,0.45386 0.27626,0.45386 0.27626,0.45386 0,0 -0.61172,0.39463 -0.6709,0.73007 -0.0593,0.33545 -0.46443,0.38758 -0.10389,1.08175 0.36048,0.69422 0.95233,2.21354 1.48511,2.70684 0.53279,0.49328 0.92748,2.01267 2.05212,2.07185 1.1245,0.0593 1.47994,0.0198 1.47994,0.0198 0,0 0.33539,0.6314 0.57234,0.74981 0.23695,0.11842 0.76921,0.25653 0.76921,0.25653 0,0 1.35552,1.81538 1.86832,2.22314 0.51279,0.40788 0.36819,0.81568 0.36819,0.81568 0,0 -0.23636,0.28939 -0.2236,0.46037 0.0134,0.1711 0.43444,0.0789 0.43444,0.0789 0,0 0.22359,0.44718 0.60453,0.53935 0.38157,0.0921 0.53954,0.36832 0.53954,0.36832 0,0 0.31593,-0.0394 0.39492,-0.1841 0.079,-0.14478 0.079,-0.26315 0.079,-0.26315 0,0 2.19643,0.18416 2.69647,0.0658 0.50004,-0.11842 1.19692,-0.092 1.28929,-0.21046 0.0917,-0.11841 0.0917,-0.11841 0.0917,-0.11841 0,0 0.82873,0.24995 0.78924,0.19727 -0.0396,-0.0525 -0.6179,-0.51309 -0.802,-0.56565 -0.1841,-0.0525 -0.44779,-0.13148 -0.34209,-0.1841 0.10513,-0.0527 0.46057,0.0131 0.10513,-0.23683 -0.35483,-0.24996 -0.93386,-0.26315 -1.07846,-0.17104 -0.14521,0.0921 -0.77649,0.11841 -1.15805,0.11841 -0.38158,0 -1.35491,-0.342 -1.35491,-0.342 0,0 -1.19694,-1.76273 -1.61798,-2.15734 -0.42108,-0.3947 -0.38158,-0.86818 -0.38158,-0.86818 0,0 0.13186,0.24996 0.9211,0.0657 0.78925,-0.18421 1.94669,-0.88135 2.3155,-0.82879 0.36819,0.0525 -0.39494,0.53935 -0.39494,0.53935 0,0 0.28983,0.19734 1.22368,-0.30252 0.93386,-0.49986 1.15745,-0.56572 1.9072,-0.43412 0.74977,0.13161 1.21031,0.35513 1.73648,0.35513 0.52616,0 0.39432,-0.22352 0.90773,-0.0262 0.51279,0.19734 1.43388,0.51298 2.27539,0.63139 0.84211,0.11837 1.14468,0.30252 1.14468,0.4605 0,0.15778 0.0134,0.71026 0.27646,0.89442 0.26308,0.1841 1.0651,0.24995 1.24979,0.13154 0.18409,-0.11842 0.38095,-0.21047 0.38095,-0.21047 0,0 0.88161,1.10496 0.68414,1.49965 0,0 0.48669,-0.0396 0.57903,-0.6051 0.0917,-0.56567 0.10511,-0.76295 0.10511,-0.76295 l 0.21388,-0.14479"
       style="fill:#005aab;fill-opacity:0.97802196;fill-rule:nonzero;stroke:none;stroke-width:0.00607583"
       id="path36" />
    <text
       transform="scale(0.916385,1.0912444)"
       id="text7388-3"
       y="250.47083"
       x="75.304314"
       style="font-style:normal;font-weight:normal;font-size:5.05707884px;line-height:125%;font-family:sans-serif;letter-spacing:0px;word-spacing:0px;fill:#0000c0;fill-opacity:1;stroke:none;stroke-width:0.12642695px;stroke-linecap:butt;stroke-linejoin:miter;stroke-opacity:1"
       xml:space="preserve"><tspan
         style="font-style:normal;font-variant:normal;font-weight:bold;font-stretch:normal;font-family:sans-serif;-inkscape-font-specification:'sans-serif Bold';fill:#0000c0;fill-opacity:1;stroke-width:0.12642695px"
         y="250.47083"
         x="75.304314"
         id="tspan7386-6">IS 60$ LOCAL INVESTMENT</tspan></text>
    <text
       transform="scale(0.91518035,1.0926808)"
       id="text7388-3-7"
       y="259.19568"
       x="161.28043"
       style="font-style:normal;font-weight:normal;font-size:6.64244509px;line-height:125%;font-family:sans-serif;letter-spacing:0px;word-spacing:0px;fill:#0000c0;fill-opacity:1;stroke:none;stroke-width:0.16606109px;stroke-linecap:butt;stroke-linejoin:miter;stroke-opacity:1"
       xml:space="preserve"><tspan
         style="font-style:normal;font-variant:normal;font-weight:bold;font-stretch:normal;font-family:sans-serif;-inkscape-font-specification:'sans-serif Bold';fill:#0000c0;fill-opacity:1;stroke-width:0.16606109px"
         y="259.19568"
         x="161.28043"
         id="tspan7386-6-5">140$ WORTH OF CHICKEN</tspan></text>
    <text
       transform="scale(0.91518036,1.0926808)"
       id="text7388-3-7-0"
       y="198.8008"
       x="48.743565"
       style="font-style:normal;font-weight:normal;font-size:8.64796638px;line-height:125%;font-family:sans-serif;letter-spacing:0px;word-spacing:0px;fill:#f79d3d;fill-opacity:0.9670333;stroke:none;stroke-width:0.21619911px;stroke-linecap:butt;stroke-linejoin:miter;stroke-opacity:1"
       xml:space="preserve"><tspan
         style="font-style:normal;font-variant:normal;font-weight:bold;font-stretch:normal;font-family:sans-serif;-inkscape-font-specification:'sans-serif Bold';fill:#f79d3d;fill-opacity:0.96703336;stroke-width:0.21619911px"
         y="198.8008"
         x="48.743565"
         id="tspan7386-6-5-6">INSPIRES</tspan></text>
    <text
       transform="scale(0.91518036,1.0926808)"
       id="text7388-3-7-0-1"
       y="184.61401"
       x="135.4751"
       style="font-style:normal;font-weight:normal;font-size:8.64796638px;line-height:125%;font-family:sans-serif;letter-spacing:0px;word-spacing:0px;fill:#f79d3d;fill-opacity:0.96703336;stroke:none;stroke-width:0.21619911px;stroke-linecap:butt;stroke-linejoin:miter;stroke-opacity:1"
       xml:space="preserve"><tspan
         style="font-style:normal;font-variant:normal;font-weight:bold;font-stretch:normal;font-family:sans-serif;-inkscape-font-specification:'sans-serif Bold';fill:#f79d3d;fill-opacity:0.96703336;stroke-width:0.21619911px"
         y="184.61401"
         x="135.4751"
         id="tspan7386-6-5-6-8">RESULTS IN</tspan></text>
  </g>
</svg>
